# xmcd
#
# Track frame offsets:
#	150
#	15634
#	31538
#	42756
#	60150
#	77224
#	89129
#	104758
#	115882
#	139314
#	153435
#	166388
#	187398
#
# Disc length: 2742 seconds
#
# Revision: 0
# Processed by: cddbd v1.4PL0 Copyright (c) Steve Scherf et al.
# Submitted via: dBpowerAMP V4.0
#
DISCID=ac0ab40d
DTITLE=Liv Marit Wedvik - Liv Marit Wedvik
DYEAR=1900
DGENRE=Country
TTITLE0=It`s a heartache
TTITLE1=I need more of you
TTITLE2=Lucy lips
TTITLE3=Speed of the sound of loneliness
TTITLE4=De sista ljuva åren - duett
TTITLE5=Till mitt eget blue Hawaii
TTITLE6=Gråt inga tåror
TTITLE7=Hooked on a feeling
TTITLE8=Heile livet - duett
TTITLE9=Fyra bugg och en Coca-Cola
TTITLE10=Help me make it through the night
TTITLE11=Belive
TTITLE12=En slant til trikken hjem
EXTD=
EXTT0=
EXTT1=
EXTT2=
EXTT3=
EXTT4=
EXTT5=
EXTT6=
EXTT7=
EXTT8=
EXTT9=
EXTT10=
EXTT11=
EXTT12=
PLAYORDER=
